<svg version="1.1" id="Layer_1" xmlns="http://www.w3.org/2000/svg" xmlns:xlink="http://www.w3.org/1999/xlink" x="0px" y="0px"
	 width="100%" viewBox="0 0 250 77" enable-background="new 0 0 250 77" xml:space="preserve">
<path fill="#F1F3F4" opacity="1.000000" stroke="none" 
	d="
M166.000000,78.000000 
	C110.666679,78.000000 55.833366,78.000000 1.000037,78.000000 
	C1.000025,52.333359 1.000025,26.666716 1.000012,1.000054 
	C84.333282,1.000036 167.666565,1.000036 250.999878,1.000018 
	C250.999924,26.666611 250.999924,52.333221 250.999969,77.999916 
	C222.833328,78.000000 194.666672,78.000000 166.000000,78.000000 
M59.123463,67.995750 
	C67.897171,67.239159 70.961754,64.008705 70.987900,55.336868 
	C71.022545,43.844440 71.024963,32.351734 70.987419,20.859324 
	C70.957588,11.727547 67.321732,8.042681 58.310146,8.012800 
	C46.817741,7.974692 35.325047,7.979820 23.832600,8.011058 
	C14.757565,8.035726 11.049223,11.697038 11.014348,20.713329 
	C10.969894,32.205692 10.980660,43.698414 11.010823,55.190868 
	C11.034438,64.188339 14.754797,67.948959 23.724995,67.985153 
	C35.217342,68.031525 46.710014,67.996452 59.123463,67.995750 
M103.448593,54.018787 
	C106.253662,53.871696 109.162979,54.150406 111.843422,53.494236 
	C118.704048,51.814754 121.411934,44.530613 117.127144,39.718842 
	C116.007530,38.461533 114.463303,37.582336 113.019142,36.455391 
	C116.644058,34.720970 118.329941,32.069031 117.686584,28.317842 
	C117.058090,24.653324 114.742706,22.272943 111.055466,21.889223 
	C105.535088,21.314732 99.974968,21.122061 94.002678,20.739510 
	C94.002678,26.895512 94.002670,32.175529 94.002670,37.455551 
	C94.002670,42.871006 94.002678,48.286461 94.002678,54.018787 
	C97.224403,54.018787 99.854156,54.018787 103.448593,54.018787 
M177.022110,52.217930 
	C177.668854,51.751778 178.315613,51.285625 178.962357,50.819477 
	C179.405273,51.011314 179.848190,51.203152 180.291122,51.394989 
	C179.393204,53.607555 179.074631,56.673443 177.431808,57.788795 
	C175.840546,58.869114 172.877106,58.064671 170.535522,57.864021 
	C168.313614,57.673622 166.116592,57.192986 162.899124,56.678585 
	C166.254852,62.530243 170.578506,64.575920 175.855515,63.743526 
	C180.285110,63.044811 185.232590,61.743500 185.622192,56.723602 
	C186.323074,47.693031 185.820145,38.569027 185.820145,28.480444 
	C182.980133,29.462996 180.853348,30.198792 177.983658,31.191612 
	C173.483429,28.269016 169.748795,28.162819 166.018494,31.513569 
	C162.056686,35.072269 161.015640,43.501518 163.891159,48.738495 
	C166.304047,53.132931 170.431396,54.450516 177.022110,52.217930 
M232.052689,46.077576 
	C230.781342,42.123878 229.162659,38.241997 228.326599,34.198303 
	C227.283142,29.151390 224.549316,28.353479 219.894287,29.831692 
	C222.740555,37.534515 225.506851,44.984699 228.243713,52.445671 
	C229.323364,55.388874 229.181641,57.437096 225.285492,58.187260 
	C223.798706,58.473522 222.679657,60.669720 220.753021,62.654980 
	C230.657089,63.821232 232.782394,62.599068 235.686081,55.108501 
	C237.487396,50.461655 239.248306,45.798859 240.991257,41.129757 
	C242.400635,37.354271 243.756027,33.558647 245.099945,29.869167 
	C239.947174,28.050142 237.835754,29.961458 236.747192,34.375687 
	C235.718918,38.545429 233.986679,42.541573 232.052689,46.077576 
M140.837906,53.121136 
	C142.923630,53.497375 145.008591,54.187832 147.095230,54.193047 
	C154.394745,54.211296 159.139496,48.811295 158.769394,41.183662 
	C158.403656,33.645462 153.058304,28.534203 145.912613,29.072025 
	C140.858383,29.452431 137.144531,31.928419 135.402283,36.818237 
	C133.292938,42.738331 135.065140,48.532558 140.837906,53.121136 
M212.246780,52.305347 
	C212.246780,46.391644 212.246780,40.477940 212.246780,34.645248 
	C214.380569,34.322075 215.801208,34.106911 217.023590,33.921776 
	C219.214584,28.509510 214.555832,29.678535 210.810013,28.002087 
	C213.178131,26.635315 214.799988,26.046482 215.929428,24.950306 
	C217.072342,23.841043 217.727951,22.229687 218.817978,20.484514 
	C208.678818,19.255161 206.785507,20.578291 205.657227,27.908243 
	C203.945496,29.402245 201.639526,30.757832 201.823013,31.384201 
	C202.280563,32.946251 203.870087,34.176716 205.005249,35.540276 
	C205.359268,35.375103 205.713303,35.209927 206.067337,35.044750 
	C206.067337,41.272438 206.067337,47.500126 206.067337,54.324127 
	C208.433273,53.909775 210.284561,53.585556 212.246780,52.305347 
M130.104691,26.630322 
	C130.104691,24.871548 130.104691,23.112774 130.104691,21.300236 
	C127.734360,21.300236 125.991592,21.300236 123.795753,21.300236 
	C123.795753,22.983847 123.795753,24.433664 123.795753,25.883480 
	C123.795753,35.113598 123.795753,44.343712 123.795753,53.684658 
	C126.110985,53.684658 127.977211,53.684658 130.104721,53.684658 
	C130.104721,44.779930 130.104721,36.188877 130.104691,26.630322 
M196.398788,29.300871 
	C194.979721,29.389626 193.560654,29.478380 192.174713,29.565062 
	C192.174713,37.910576 192.174713,45.779919 192.174713,53.674179 
	C194.315323,53.674179 196.187607,53.674179 198.261002,53.674179 
	C198.261002,50.214767 198.375732,47.079559 198.234482,43.955933 
	C198.015015,39.102566 197.621338,34.257080 196.398788,29.300871 
M193.433960,19.977316 
	C193.127655,21.653448 192.502808,23.371803 192.715851,24.979084 
	C192.777023,25.440454 195.495163,26.148598 196.561432,25.703897 
	C197.563705,25.285902 197.993561,23.495455 198.675262,22.308859 
	C197.145325,21.460672 195.615402,20.612486 193.433960,19.977316 
z"/>
<path fill="#5145E5" opacity="1.000000" stroke="none" 
	d="
M58.663006,67.996109 
	C46.710014,67.996452 35.217342,68.031525 23.724995,67.985153 
	C14.754797,67.948959 11.034438,64.188339 11.010823,55.190868 
	C10.980660,43.698414 10.969894,32.205692 11.014348,20.713329 
	C11.049223,11.697038 14.757565,8.035726 23.832600,8.011058 
	C35.325047,7.979820 46.817741,7.974692 58.310146,8.012800 
	C67.321732,8.042681 70.957588,11.727547 70.987419,20.859324 
	C71.024963,32.351734 71.022545,43.844440 70.987900,55.336868 
	C70.961754,64.008705 67.897171,67.239159 58.663006,67.996109 
M51.002834,31.974512 
	C49.853928,23.343328 38.046906,17.834751 30.872967,22.723995 
	C29.864498,23.411297 29.122135,25.200384 29.093943,26.497671 
	C28.928154,34.126976 29.014648,41.761684 29.007580,49.394566 
	C29.004751,52.449566 30.483479,54.001163 33.570019,53.994400 
	C37.552383,53.985668 41.539261,53.881828 45.515957,54.034111 
	C49.634174,54.191807 51.158886,52.267887 51.040359,48.306683 
	C50.886581,43.167316 51.003319,38.019859 51.002834,31.974512 
z"/>
<path fill="#283142" opacity="1.000000" stroke="none" 
	d="
M102.966255,54.018787 
	C99.854156,54.018787 97.224403,54.018787 94.002678,54.018787 
	C94.002678,48.286461 94.002670,42.871006 94.002670,37.455551 
	C94.002670,32.175529 94.002678,26.895512 94.002678,20.739510 
	C99.974968,21.122061 105.535088,21.314732 111.055466,21.889223 
	C114.742706,22.272943 117.058090,24.653324 117.686584,28.317842 
	C118.329941,32.069031 116.644058,34.720970 113.019142,36.455391 
	C114.463303,37.582336 116.007530,38.461533 117.127144,39.718842 
	C121.411934,44.530613 118.704048,51.814754 111.843422,53.494236 
	C109.162979,54.150406 106.253662,53.871696 102.966255,54.018787 
M101.544769,48.111069 
	C103.689735,48.146282 106.012268,48.705307 107.925438,48.056751 
	C109.558289,47.503223 111.849213,45.516472 111.797691,44.246960 
	C111.737129,42.754581 109.705269,40.631145 108.089256,40.088257 
	C105.943840,39.367523 103.373886,39.910526 100.908455,39.910526 
	C100.908455,42.794456 100.908455,45.092274 101.544769,48.111069 
M105.181511,34.986919 
	C108.597710,35.026749 111.831902,33.867363 110.721794,30.004366 
	C109.198807,24.704599 104.560555,27.523918 100.267624,27.059824 
	C102.382835,29.918131 97.436096,34.987778 105.181511,34.986919 
z"/>
<path fill="#2A3140" opacity="1.000000" stroke="none" 
	d="
M176.692596,52.468937 
	C170.431396,54.450516 166.304047,53.132931 163.891159,48.738495 
	C161.015640,43.501518 162.056686,35.072269 166.018494,31.513569 
	C169.748795,28.162819 173.483429,28.269016 177.983658,31.191612 
	C180.853348,30.198792 182.980133,29.462996 185.820145,28.480444 
	C185.820145,38.569027 186.323074,47.693031 185.622192,56.723602 
	C185.232590,61.743500 180.285110,63.044811 175.855515,63.743526 
	C170.578506,64.575920 166.254852,62.530243 162.899124,56.678585 
	C166.116592,57.192986 168.313614,57.673622 170.535522,57.864021 
	C172.877106,58.064671 175.840546,58.869114 177.431808,57.788795 
	C179.074631,56.673443 179.393204,53.607555 180.291122,51.394989 
	C179.848190,51.203152 179.405273,51.011314 178.962357,50.819477 
	C178.315613,51.285625 177.668854,51.751778 176.692596,52.468937 
M179.002121,37.757160 
	C175.956635,33.818092 172.256470,32.940842 170.842682,36.297249 
	C169.591156,39.268497 170.009460,43.171928 170.562500,46.519779 
	C170.707703,47.398758 174.348648,48.625580 175.932724,48.159168 
	C179.876953,46.997856 179.886017,43.386982 179.541153,39.948223 
	C179.491898,39.457150 179.326553,38.977718 179.002121,37.757160 
z"/>
<path fill="#2D3343" opacity="1.000000" stroke="none" 
	d="
M232.308380,46.345825 
	C233.986679,42.541573 235.718918,38.545429 236.747192,34.375687 
	C237.835754,29.961458 239.947174,28.050142 245.099945,29.869167 
	C243.756027,33.558647 242.400635,37.354271 240.991257,41.129757 
	C239.248306,45.798859 237.487396,50.461655 235.686081,55.108501 
	C232.782394,62.599068 230.657089,63.821232 220.753021,62.654980 
	C222.679657,60.669720 223.798706,58.473522 225.285492,58.187260 
	C229.181641,57.437096 229.323364,55.388874 228.243713,52.445671 
	C225.506851,44.984699 222.740555,37.534515 219.894287,29.831692 
	C224.549316,28.353479 227.283142,29.151390 228.326599,34.198303 
	C229.162659,38.241997 230.781342,42.123878 232.308380,46.345825 
z"/>
<path fill="#283041" opacity="1.000000" stroke="none" 
	d="
M140.477386,52.954453 
	C135.065140,48.532558 133.292938,42.738331 135.402283,36.818237 
	C137.144531,31.928419 140.858383,29.452431 145.912613,29.072025 
	C153.058304,28.534203 158.403656,33.645462 158.769394,41.183662 
	C159.139496,48.811295 154.394745,54.211296 147.095230,54.193047 
	C145.008591,54.187832 142.923630,53.497375 140.477386,52.954453 
M143.205826,35.806843 
	C142.809784,39.121414 141.765091,42.522427 142.192184,45.727299 
	C142.659988,49.237640 145.901093,49.750797 148.863129,48.701073 
	C151.710876,47.691856 153.000488,41.706963 151.345703,37.916828 
	C149.802475,34.382195 147.297928,33.242115 143.205826,35.806843 
z"/>
<path fill="#262D3B" opacity="1.000000" stroke="none" 
	d="
M212.191315,52.783340 
	C210.284561,53.585556 208.433273,53.909775 206.067337,54.324127 
	C206.067337,47.500126 206.067337,41.272438 206.067337,35.044750 
	C205.713303,35.209927 205.359268,35.375103 205.005249,35.540276 
	C203.870087,34.176716 202.280563,32.946251 201.823013,31.384201 
	C201.639526,30.757832 203.945496,29.402245 205.657227,27.908243 
	C206.785507,20.578291 208.678818,19.255161 218.817978,20.484514 
	C217.727951,22.229687 217.072342,23.841043 215.929428,24.950306 
	C214.799988,26.046482 213.178131,26.635315 210.810013,28.002087 
	C214.555832,29.678535 219.214584,28.509510 217.023590,33.921776 
	C215.801208,34.106911 214.380569,34.322075 212.246780,34.645248 
	C212.246780,40.477940 212.246780,46.391644 212.191315,52.783340 
z"/>
<path fill="#202A3E" opacity="1.000000" stroke="none" 
	d="
M130.104706,27.114071 
	C130.104721,36.188877 130.104721,44.779930 130.104721,53.684658 
	C127.977211,53.684658 126.110985,53.684658 123.795753,53.684658 
	C123.795753,44.343712 123.795753,35.113598 123.795753,25.883480 
	C123.795753,24.433664 123.795753,22.983847 123.795753,21.300236 
	C125.991592,21.300236 127.734360,21.300236 130.104691,21.300236 
	C130.104691,23.112774 130.104691,24.871548 130.104706,27.114071 
z"/>
<path fill="#282C3A" opacity="1.000000" stroke="none" 
	d="
M196.850143,29.354563 
	C197.621338,34.257080 198.015015,39.102566 198.234482,43.955933 
	C198.375732,47.079559 198.261002,50.214767 198.261002,53.674179 
	C196.187607,53.674179 194.315323,53.674179 192.174713,53.674179 
	C192.174713,45.779919 192.174713,37.910576 192.174713,29.565062 
	C193.560654,29.478380 194.979721,29.389626 196.850143,29.354563 
z"/>
<path fill="#273346" opacity="1.000000" stroke="none" 
	d="
M193.759705,19.870808 
	C195.615402,20.612486 197.145325,21.460672 198.675262,22.308861 
	C197.993561,23.495455 197.563705,25.285902 196.561432,25.703897 
	C195.495163,26.148598 192.777023,25.440454 192.715851,24.979084 
	C192.502808,23.371803 193.127655,21.653448 193.759705,19.870808 
z"/>
<path fill="#FDFDFF" opacity="1.000000" stroke="none" 
	d="
M51.003223,32.425198 
	C51.003319,38.019859 50.886581,43.167316 51.040359,48.306683 
	C51.158886,52.267887 49.634174,54.191807 45.515957,54.034111 
	C41.539261,53.881828 37.552383,53.985668 33.570019,53.994400 
	C30.483479,54.001163 29.004751,52.449566 29.007580,49.394566 
	C29.014648,41.761684 28.928154,34.126976 29.093943,26.497671 
	C29.122135,25.200384 29.864498,23.411297 30.872967,22.723995 
	C38.046906,17.834751 49.853928,23.343328 51.003223,32.425198 
M36.115665,32.002785 
	C31.280766,31.940279 34.458378,35.967484 33.193775,37.727310 
	C34.391914,38.485626 35.525661,39.731449 36.801693,39.899982 
	C39.395790,40.242596 42.070019,39.920853 44.705166,40.025494 
	C47.752705,40.146503 48.565567,39.432167 48.617104,35.854385 
	C48.668839,32.262894 47.539745,31.969316 44.901035,31.991478 
	C42.261940,32.013645 39.622517,31.996365 36.115665,32.002785 
z"/>
<path fill="#F2F1EF" opacity="1.000000" stroke="none" 
	d="
M101.226608,47.750580 
	C100.908455,45.092274 100.908455,42.794456 100.908455,39.910526 
	C103.373886,39.910526 105.943840,39.367523 108.089256,40.088257 
	C109.705269,40.631145 111.737129,42.754581 111.797691,44.246960 
	C111.849213,45.516472 109.558289,47.503223 107.925438,48.056751 
	C106.012268,48.705307 103.689735,48.146282 101.226608,47.750580 
z"/>
<path fill="#F2F0EE" opacity="1.000000" stroke="none" 
	d="
M104.739113,34.986977 
	C97.436096,34.987778 102.382835,29.918131 100.267624,27.059824 
	C104.560555,27.523918 109.198807,24.704599 110.721794,30.004366 
	C111.831902,33.867363 108.597710,35.026749 104.739113,34.986977 
z"/>
<path fill="#E5EAEB" opacity="1.000000" stroke="none" 
	d="
M179.108536,38.125031 
	C179.326553,38.977718 179.491898,39.457150 179.541153,39.948223 
	C179.886017,43.386982 179.876953,46.997856 175.932724,48.159168 
	C174.348648,48.625580 170.707703,47.398758 170.562500,46.519779 
	C170.009460,43.171928 169.591156,39.268497 170.842682,36.297249 
	C172.256470,32.940842 175.956635,33.818092 179.108536,38.125031 
z"/>
<path fill="#E8ECED" opacity="1.000000" stroke="none" 
	d="
M143.480911,35.546692 
	C147.297928,33.242115 149.802475,34.382195 151.345703,37.916828 
	C153.000488,41.706963 151.710876,47.691856 148.863129,48.701073 
	C145.901093,49.750797 142.659988,49.237640 142.192184,45.727299 
	C141.765091,42.522427 142.809784,39.121414 143.480911,35.546692 
z"/>
<path fill="#5448E6" opacity="1.000000" stroke="none" 
	d="
M36.549450,31.999580 
	C39.622517,31.996365 42.261940,32.013645 44.901035,31.991478 
	C47.539745,31.969316 48.668839,32.262894 48.617104,35.854385 
	C48.565567,39.432167 47.752705,40.146503 44.705166,40.025494 
	C42.070019,39.920853 39.395790,40.242596 36.801693,39.899982 
	C35.525661,39.731449 34.391914,38.485626 33.193775,37.727310 
	C34.458378,35.967484 31.280766,31.940279 36.549450,31.999580 
z"/>
</svg>