<svg version="1.1" id="Layer_1" xmlns="http://www.w3.org/2000/svg" xmlns:xlink="http://www.w3.org/1999/xlink" x="0px" y="0px"
	 width="100%" viewBox="0 0 195 193" enable-background="new 0 0 195 193" xml:space="preserve">
<path fill="#F0F1F7" opacity="1.000000" stroke="none" 
	d="
M1.000000,52.000000 
	C1.000000,34.666672 1.000000,17.833342 1.000000,1.000009 
	C65.999977,1.000006 130.999954,1.000006 195.999954,1.000003 
	C195.999969,65.333298 195.999969,129.666595 195.999985,193.999908 
	C131.000046,193.999939 66.000099,193.999939 1.000076,193.999969 
	C1.000000,146.833328 1.000000,99.666664 1.000000,52.000000 
M131.767624,192.670502 
	C131.767624,192.670502 132.225266,192.669495 132.225266,192.669495 
	C132.225266,192.669495 132.662521,192.804535 133.643417,192.988831 
	C141.430222,192.734329 149.217010,192.479828 157.837570,192.081711 
	C160.996292,191.436981 164.155014,190.792252 168.068985,190.189621 
	C179.555832,187.770676 188.044586,181.696655 190.754181,169.832764 
	C192.176987,163.603012 192.780838,157.064362 192.816330,150.659988 
	C193.007202,116.220711 192.938004,81.779732 192.860458,47.339558 
	C192.850006,42.697998 192.520630,38.027901 191.936569,33.422043 
	C189.649033,15.382552 176.245483,4.384730 157.862000,5.279796 
	C157.369324,5.211552 156.876648,5.083714 156.383957,5.083554 
	C117.999924,5.071177 79.615334,4.969845 41.232578,5.189912 
	C36.389297,5.217680 31.555725,6.938387 25.998325,7.899012 
	C16.882236,10.739213 10.762030,16.782623 8.176279,25.865404 
	C6.735689,30.925657 5.809685,36.306362 5.746469,41.555832 
	C5.401686,70.187088 5.321221,98.822418 5.313040,127.456390 
	C5.309807,138.771622 5.253404,150.122040 6.085804,161.392563 
	C6.941284,172.975601 11.040800,183.095032 23.216503,188.585373 
	C23.817299,188.725861 24.418095,188.866364 25.223482,189.198532 
	C25.223482,189.198532 25.497112,189.137543 25.898235,189.847092 
	C30.265709,190.639008 34.633186,191.430923 39.664841,192.712204 
	C49.953823,192.830795 60.242867,193.052521 70.531769,193.046082 
	C90.798218,193.033386 111.064590,192.894119 131.767624,192.670502 
z"/>
<path fill="#5246E4" opacity="1.000000" stroke="none" 
	d="
M158.575806,5.867573 
	C176.245483,4.384730 189.649033,15.382552 191.936569,33.422043 
	C192.520630,38.027901 192.850006,42.697998 192.860458,47.339558 
	C192.938004,81.779732 193.007202,116.220711 192.816330,150.659988 
	C192.780838,157.064362 192.176987,163.603012 190.754181,169.832764 
	C188.044586,181.696655 179.555832,187.770676 167.210663,190.122986 
	C162.068100,190.367889 157.776596,191.026733 153.500763,190.937180 
	C110.836670,190.043671 68.115768,193.129074 25.497112,189.137543 
	C25.497112,189.137543 25.223482,189.198532 24.929363,188.852020 
	C24.037598,188.363937 23.439949,188.222336 22.842300,188.080750 
	C11.040800,183.095032 6.941284,172.975601 6.085804,161.392563 
	C5.253404,150.122040 5.309807,138.771622 5.313040,127.456390 
	C5.321221,98.822418 5.401686,70.187088 5.746469,41.555832 
	C5.809685,36.306362 6.735689,30.925657 8.176279,25.865404 
	C10.762030,16.782623 16.882236,10.739213 26.809525,7.925457 
	C38.349823,7.300458 49.074856,6.178180 59.808784,6.085368 
	C92.729294,5.800719 125.653214,5.910904 158.575806,5.867573 
M115.686447,54.692993 
	C115.345161,54.564529 115.003883,54.436069 114.701530,54.380886 
	C114.701530,54.380886 114.618576,54.382809 114.761070,53.631268 
	C113.541313,53.078896 112.321556,52.526520 110.398857,51.834919 
	C98.562828,45.379238 86.358810,42.581505 73.211342,47.756207 
	C65.731293,50.700268 61.892216,55.875851 61.856762,64.057510 
	C61.759510,86.496292 61.475296,108.934227 61.318592,131.372864 
	C61.303596,133.519852 61.587208,135.679367 61.864708,137.815842 
	C62.462841,142.420883 64.235901,146.257980 69.172684,148.811676 
	C70.020424,149.201675 70.866707,149.928101 71.716125,149.931793 
	C87.534325,150.000412 103.353844,150.060486 119.169952,149.866699 
	C120.790489,149.846832 122.391083,148.199326 124.391212,147.046738 
	C124.391212,147.046738 124.852470,146.960953 125.518631,146.918854 
	C126.020897,146.288147 126.523170,145.657425 127.000000,145.000000 
	C127.000000,145.000000 127.026871,145.025116 127.690483,144.916962 
	C128.073013,144.210953 128.455536,143.504959 128.872589,142.906250 
	C128.872589,142.906250 128.759995,142.901169 129.447220,142.698547 
	C129.972321,141.468567 130.497437,140.238586 131.577042,138.387085 
	C131.704453,118.649078 132.010498,98.908920 131.771637,79.175346 
	C131.734711,76.124733 129.198990,73.104355 127.905823,70.067390 
	C127.905823,70.067390 127.877808,70.149750 127.916679,69.499046 
	C127.545822,69.022514 127.174957,68.545982 126.900261,68.072212 
	C126.900261,68.072212 126.866989,68.162483 126.911964,67.483879 
	C126.247490,66.662926 125.583015,65.841980 124.989380,65.014366 
	C124.989380,65.014366 124.955704,65.077042 124.943306,64.472366 
	C124.408623,63.970436 123.873940,63.468510 123.033409,62.674690 
	C123.033409,62.674690 122.926674,62.265606 122.778023,61.714893 
	C122.485107,61.487076 122.192184,61.259258 121.974350,61.027069 
	C121.974350,61.027069 121.962242,61.101299 121.776985,60.609127 
	C121.494621,60.414047 121.212250,60.218967 120.994255,60.007626 
	C120.994255,60.007626 120.974487,60.071011 120.789520,59.585815 
	C120.507744,59.398094 120.225960,59.210373 119.997673,58.999962 
	C119.997673,58.999962 119.978569,59.054836 119.774284,58.578773 
	C119.489914,58.394501 119.205544,58.210228 118.989326,58.011974 
	C118.989326,58.011974 118.974266,58.079887 118.768227,57.592201 
	C118.474815,57.409340 118.181396,57.226482 117.964622,57.034454 
	C117.964622,57.034454 117.960587,57.111534 117.747154,56.614628 
	C117.443214,56.436302 117.139275,56.257977 116.935623,56.068398 
	C116.935623,56.068398 116.923157,56.168552 116.728050,55.646011 
	C116.408417,55.479084 116.088776,55.312153 115.884888,55.124474 
	C115.884888,55.124474 115.862862,55.239979 115.686447,54.692993 
z"/>
<path fill="#564DC9" opacity="1.000000" stroke="none" 
	d="
M25.697674,189.492310 
	C68.115768,193.129074 110.836670,190.043671 153.500763,190.937180 
	C157.776596,191.026733 162.068100,190.367889 166.833038,190.101944 
	C164.155014,190.792252 160.996292,191.436981 156.955460,192.094299 
	C148.269745,192.339447 140.466125,192.571991 132.662521,192.804535 
	C132.662521,192.804535 132.225266,192.669495 132.225266,192.669495 
	C132.225266,192.669495 131.767624,192.670502 131.158081,192.546585 
	C100.032578,192.356064 69.516617,192.289444 39.000660,192.222839 
	C34.633186,191.430923 30.265709,190.639008 25.697674,189.492310 
z"/>
<path fill="#5A4FC8" opacity="1.000000" stroke="none" 
	d="
M158.218903,5.573684 
	C125.653214,5.910904 92.729294,5.800719 59.808784,6.085368 
	C49.074856,6.178180 38.349823,7.300458 27.169189,7.913319 
	C31.555725,6.938387 36.389297,5.217680 41.232578,5.189912 
	C79.615334,4.969845 117.999924,5.071177 156.383957,5.083554 
	C156.876648,5.083714 157.369324,5.211552 158.218903,5.573684 
z"/>
<path fill="#CDCAFB" opacity="1.000000" stroke="none" 
	d="
M39.332748,192.467529 
	C69.516617,192.289444 100.032578,192.356064 130.939758,192.614929 
	C111.064590,192.894119 90.798218,193.033386 70.531769,193.046082 
	C60.242867,193.052521 49.953823,192.830795 39.332748,192.467529 
z"/>
<path fill="#CDCAFB" opacity="1.000000" stroke="none" 
	d="
M133.152969,192.896683 
	C140.466125,192.571991 148.269745,192.339447 156.538574,192.166107 
	C149.217010,192.479828 141.430222,192.734329 133.152969,192.896683 
z"/>
<path fill="#564DC9" opacity="1.000000" stroke="none" 
	d="
M23.029402,188.333069 
	C23.439949,188.222336 24.037598,188.363937 24.827068,188.756195 
	C24.418095,188.866364 23.817299,188.725861 23.029402,188.333069 
z"/>
<path fill="#FAFAFE" opacity="1.000000" stroke="none" 
	d="
M68.948715,148.031708 
	C64.235901,146.257980 62.462841,142.420883 61.864708,137.815842 
	C61.587208,135.679367 61.303596,133.519852 61.318592,131.372864 
	C61.475296,108.934227 61.759510,86.496292 61.856762,64.057510 
	C61.892216,55.875851 65.731293,50.700268 73.211342,47.756207 
	C86.358810,42.581505 98.562828,45.379238 110.926514,52.160805 
	C112.508972,53.118729 113.563774,53.750767 114.618576,54.382809 
	C114.618576,54.382809 114.701530,54.380886 114.793701,54.591255 
	C115.211533,54.947746 115.537193,55.093864 115.862862,55.239979 
	C115.862862,55.239979 115.884888,55.124474 115.927841,55.392117 
	C116.288246,55.829357 116.605705,55.998955 116.923157,56.168552 
	C116.923157,56.168552 116.935623,56.068398 116.978592,56.333305 
	C117.334572,56.769318 117.647575,56.940426 117.960587,57.111534 
	C117.960587,57.111534 117.964622,57.034454 118.016747,57.292534 
	C118.370667,57.727036 118.672470,57.903461 118.974266,58.079887 
	C118.974266,58.079887 118.989326,58.011974 119.025826,58.280003 
	C119.367737,58.716965 119.673157,58.885902 119.978569,59.054836 
	C119.978569,59.054836 119.997673,58.999962 120.055679,59.261284 
	C120.400620,59.705410 120.687553,59.888210 120.974487,60.071014 
	C120.974487,60.071011 120.994255,60.007626 121.037827,60.274940 
	C121.375015,60.728603 121.668633,60.914951 121.962242,61.101295 
	C121.962242,61.101299 121.974350,61.027069 122.014679,61.302010 
	C122.345566,61.806507 122.636116,62.036057 122.926674,62.265610 
	C122.926674,62.265606 123.033409,62.674690 123.253784,63.089584 
	C123.968010,64.028671 124.461853,64.552856 124.955704,65.077042 
	C124.955704,65.077042 124.989380,65.014366 125.005417,65.332321 
	C125.636635,66.487671 126.251808,67.325081 126.866989,68.162483 
	C126.866989,68.162483 126.900261,68.072212 126.883224,68.379097 
	C127.203392,69.173904 127.540604,69.661827 127.877808,70.149750 
	C127.877808,70.149750 127.905823,70.067390 127.902466,70.464165 
	C128.768311,74.546341 130.361237,78.227066 130.385132,81.917938 
	C130.508362,100.945496 130.229279,119.975647 129.966705,139.327606 
	C129.481888,140.733917 129.120941,141.817551 128.759995,142.901169 
	C128.759995,142.901169 128.872589,142.906250 128.589630,142.984436 
	C127.880081,143.716782 127.453476,144.370956 127.026871,145.025116 
	C127.026871,145.025116 127.000000,145.000000 126.736725,145.126740 
	C125.933128,145.822632 125.392799,146.391785 124.852470,146.960953 
	C124.852470,146.960953 124.391212,147.046738 123.824821,147.250595 
	C121.681236,147.930054 120.099472,148.832352 118.527557,148.815536 
	C102.000374,148.638657 85.474762,148.314896 68.948715,148.031708 
M78.804245,100.225197 
	C78.804245,100.225197 78.662331,100.272537 78.884422,100.857193 
	C79.580177,101.284996 80.275940,101.712799 81.281410,102.617416 
	C81.803398,102.828644 82.325386,103.039871 83.391510,103.807068 
	C94.705147,103.921051 106.018776,104.035034 118.048439,104.111160 
	C123.867836,100.332680 124.957893,88.266724 119.602013,81.322296 
	C117.526291,80.875259 115.457222,80.082649 113.373657,80.042526 
	C105.430412,79.889503 97.481407,79.903786 89.536880,80.017700 
	C86.637131,80.059288 83.743866,80.553261 80.961128,80.823647 
	C80.961128,80.823647 80.915009,80.718529 80.213943,80.690331 
	C79.419403,81.087982 78.624870,81.485641 77.217056,82.246811 
	C76.714233,84.003967 76.211411,85.761124 75.393494,88.211861 
	C75.357651,91.007530 75.191391,93.811241 75.362976,96.594124 
	C75.416611,97.463974 76.381767,98.277626 76.977837,99.033981 
	C76.977837,99.033981 76.889801,99.072212 77.179993,99.601463 
	C77.712120,99.858368 78.244255,100.115273 78.804245,100.225197 
z"/>
<path fill="#5E55C7" opacity="1.000000" stroke="none" 
	d="
M130.090591,139.004898 
	C130.229279,119.975647 130.508362,100.945496 130.385132,81.917938 
	C130.361237,78.227066 128.768311,74.546341 127.858994,70.465469 
	C129.198990,73.104355 131.734711,76.124733 131.771637,79.175346 
	C132.010498,98.908920 131.704453,118.649078 131.066681,138.694519 
	C130.556320,139.001953 130.090591,139.004898 130.090591,139.004898 
z"/>
<path fill="#584EC6" opacity="1.000000" stroke="none" 
	d="
M69.060699,148.421692 
	C85.474762,148.314896 102.000374,148.638657 118.527557,148.815536 
	C120.099472,148.832352 121.681236,147.930054 123.629684,147.380768 
	C122.391083,148.199326 120.790489,149.846832 119.169952,149.866699 
	C103.353844,150.060486 87.534325,150.000412 71.716125,149.931793 
	C70.866707,149.928101 70.020424,149.201675 69.060699,148.421692 
z"/>
<path fill="#5E55C7" opacity="1.000000" stroke="none" 
	d="
M114.689819,54.007038 
	C113.563774,53.750767 112.508972,53.118729 111.277985,52.230415 
	C112.321556,52.526520 113.541313,53.078896 114.689819,54.007038 
z"/>
<path fill="#584EC6" opacity="1.000000" stroke="none" 
	d="
M129.966705,139.327606 
	C130.090591,139.004898 130.556320,139.001953 130.789429,139.005280 
	C130.497437,140.238586 129.972321,141.468567 129.103607,142.799866 
	C129.120941,141.817551 129.481888,140.733917 129.966705,139.327606 
z"/>
<path fill="#5E55C7" opacity="1.000000" stroke="none" 
	d="
M126.889481,67.823181 
	C126.251808,67.325081 125.636635,66.487671 124.970001,65.335648 
	C125.583015,65.841980 126.247490,66.662926 126.889481,67.823181 
z"/>
<path fill="#584EC6" opacity="1.000000" stroke="none" 
	d="
M125.185547,146.939911 
	C125.392799,146.391785 125.933128,145.822632 126.749443,145.140076 
	C126.523170,145.657425 126.020897,146.288147 125.185547,146.939911 
z"/>
<path fill="#584EC6" opacity="1.000000" stroke="none" 
	d="
M127.358673,144.971039 
	C127.453476,144.370956 127.880081,143.716782 128.572372,142.930786 
	C128.455536,143.504959 128.073013,144.210953 127.358673,144.971039 
z"/>
<path fill="#5E55C7" opacity="1.000000" stroke="none" 
	d="
M124.949509,64.774704 
	C124.461853,64.552856 123.968010,64.028671 123.406708,63.235527 
	C123.873940,63.468510 124.408623,63.970436 124.949509,64.774704 
z"/>
<path fill="#5E55C7" opacity="1.000000" stroke="none" 
	d="
M127.897247,69.824402 
	C127.540604,69.661827 127.203392,69.173904 126.835136,68.377716 
	C127.174957,68.545982 127.545822,69.022514 127.897247,69.824402 
z"/>
<path fill="#5E55C7" opacity="1.000000" stroke="none" 
	d="
M119.876427,58.816803 
	C119.673157,58.885902 119.367737,58.716965 118.991753,58.286995 
	C119.205544,58.210228 119.489914,58.394501 119.876427,58.816803 
z"/>
<path fill="#5E55C7" opacity="1.000000" stroke="none" 
	d="
M122.852348,61.990250 
	C122.636116,62.036057 122.345566,61.806507 121.977142,61.304199 
	C122.192184,61.259258 122.485107,61.487076 122.852348,61.990250 
z"/>
<path fill="#5E55C7" opacity="1.000000" stroke="none" 
	d="
M118.871246,57.836044 
	C118.672470,57.903461 118.370667,57.727036 117.978424,57.297119 
	C118.181396,57.226482 118.474815,57.409340 118.871246,57.836044 
z"/>
<path fill="#5E55C7" opacity="1.000000" stroke="none" 
	d="
M120.882004,59.828415 
	C120.687553,59.888210 120.400620,59.705410 120.028938,59.272629 
	C120.225960,59.210373 120.507744,59.398094 120.882004,59.828415 
z"/>
<path fill="#5E55C7" opacity="1.000000" stroke="none" 
	d="
M121.869614,60.855209 
	C121.668633,60.914951 121.375015,60.728603 121.005646,60.283073 
	C121.212250,60.218967 121.494621,60.414047 121.869614,60.855209 
z"/>
<path fill="#5E55C7" opacity="1.000000" stroke="none" 
	d="
M117.853867,56.863083 
	C117.647575,56.940426 117.334572,56.769318 116.928452,56.338928 
	C117.139275,56.257977 117.443214,56.436302 117.853867,56.863083 
z"/>
<path fill="#5E55C7" opacity="1.000000" stroke="none" 
	d="
M116.825607,55.907280 
	C116.605705,55.998955 116.288246,55.829357 115.869965,55.402489 
	C116.088776,55.312153 116.408417,55.479084 116.825607,55.907280 
z"/>
<path fill="#5E55C7" opacity="1.000000" stroke="none" 
	d="
M115.774658,54.966484 
	C115.537193,55.093864 115.211533,54.947746 114.774231,54.554619 
	C115.003883,54.436069 115.345161,54.564529 115.774658,54.966484 
z"/>
<path fill="#564AE4" opacity="1.000000" stroke="none" 
	d="
M75.708572,87.518280 
	C76.211411,85.761124 76.714233,84.003967 77.885773,82.095535 
	C79.341324,81.535683 80.128166,81.127106 80.915009,80.718529 
	C80.915009,80.718529 80.961128,80.823647 81.383133,80.890366 
	C94.553291,81.291374 107.301445,81.625664 120.049606,81.959961 
	C124.957893,88.266724 123.867836,100.332680 117.197800,104.087006 
	C107.902252,104.045639 99.456558,104.087639 91.012871,103.977066 
	C88.288338,103.941383 85.569054,103.504471 82.847374,103.251106 
	C82.325386,103.039871 81.803398,102.828644 81.017227,102.074738 
	C80.056129,101.112228 79.359230,100.692383 78.662331,100.272537 
	C78.662331,100.272537 78.804245,100.225197 78.720291,99.975204 
	C78.054161,99.507553 77.471985,99.289879 76.889801,99.072212 
	C76.889801,99.072212 76.977837,99.033981 76.977386,98.614876 
	C76.554146,94.636604 76.131363,91.077446 75.708572,87.518280 
z"/>
<path fill="#6157BB" opacity="1.000000" stroke="none" 
	d="
M119.825806,81.641129 
	C107.301445,81.625664 94.553291,81.291374 81.326385,80.898972 
	C83.743866,80.553261 86.637131,80.059288 89.536880,80.017700 
	C97.481407,79.903786 105.430412,79.889503 113.373657,80.042526 
	C115.457222,80.082649 117.526291,80.875259 119.825806,81.641129 
z"/>
<path fill="#5E54C8" opacity="1.000000" stroke="none" 
	d="
M83.119446,103.529091 
	C85.569054,103.504471 88.288338,103.941383 91.012871,103.977066 
	C99.456558,104.087639 107.902252,104.045639 116.839790,104.105942 
	C106.018776,104.035034 94.705147,103.921051 83.119446,103.529091 
z"/>
<path fill="#5E54C8" opacity="1.000000" stroke="none" 
	d="
M75.551033,87.865067 
	C76.131363,91.077446 76.554146,94.636604 76.953300,98.656387 
	C76.381767,98.277626 75.416611,97.463974 75.362976,96.594124 
	C75.191391,93.811241 75.357651,91.007530 75.551033,87.865067 
z"/>
<path fill="#5E54C8" opacity="1.000000" stroke="none" 
	d="
M78.773376,100.564865 
	C79.359230,100.692383 80.056129,101.112228 80.862366,101.836334 
	C80.275940,101.712799 79.580177,101.284996 78.773376,100.564865 
z"/>
<path fill="#6157BB" opacity="1.000000" stroke="none" 
	d="
M80.564476,80.704430 
	C80.128166,81.127106 79.341324,81.535683 78.192406,81.913788 
	C78.624870,81.485641 79.419403,81.087982 80.564476,80.704430 
z"/>
<path fill="#5E54C8" opacity="1.000000" stroke="none" 
	d="
M77.034897,99.336838 
	C77.471985,99.289879 78.054161,99.507553 78.706360,100.048706 
	C78.244255,100.115273 77.712120,99.858368 77.034897,99.336838 
z"/>
</svg>